<?xml version="1.0" encoding="UTF-8"?>
<svg xmlns="http://www.w3.org/2000/svg" xmlns:xlink="http://www.w3.org/1999/xlink" width="16pt" height="16pt"
     viewBox="0 0 16 16" version="1.1">
    <g id="surface1">
        <path style=" stroke:none;fill-rule:nonzero;fill:rgb(0%,0%,0%);fill-opacity:1;"
              d="M 7.3125 1.535156 L 7.3125 2.46875 L 7.15625 2.535156 C 6.84375 2.671875 6.613281 2.832031 6.398438 3.0625 C 6.25 3.230469 6.09375 3.488281 6.046875 3.652344 C 5.9375 4.039062 6.003906 4.503906 6.21875 4.84375 L 6.316406 5.003906 L 5.9375 5.757812 C 4.699219 8.226562 3.890625 9.828125 3.878906 9.839844 C 3.875 9.84375 3.792969 9.835938 3.695312 9.820312 C 3.449219 9.785156 3.410156 9.789062 3.378906 9.839844 C 3.347656 9.886719 2.683594 11.171875 2.570312 11.410156 C 2.527344 11.492188 2.492188 11.582031 2.492188 11.601562 C 2.492188 11.640625 2.585938 11.796875 2.699219 11.949219 L 2.777344 12.050781 L 2.523438 12.542969 L 2.273438 13.035156 L 2.414062 13.148438 L 2.554688 13.265625 L 2.386719 13.707031 C 2.289062 13.953125 2.140625 14.339844 2.046875 14.574219 C 1.878906 14.996094 1.878906 14.996094 1.917969 15.019531 C 1.9375 15.03125 2.011719 15.078125 2.078125 15.121094 C 2.144531 15.167969 2.203125 15.195312 2.214844 15.191406 C 2.230469 15.175781 2.765625 14.34375 3.117188 13.792969 C 3.246094 13.585938 3.359375 13.417969 3.363281 13.417969 C 3.371094 13.417969 3.476562 13.429688 3.597656 13.441406 C 3.722656 13.453125 3.820312 13.460938 3.824219 13.460938 C 3.828125 13.457031 3.863281 13.398438 3.90625 13.328125 C 4.0625 13.078125 4.542969 12.144531 5.882812 9.507812 C 6.351562 8.585938 6.742188 7.820312 6.75 7.816406 C 6.757812 7.8125 7.339844 7.800781 8.046875 7.792969 L 9.332031 7.785156 L 9.820312 8.785156 C 11.035156 11.261719 12.207031 13.652344 12.210938 13.65625 C 12.210938 13.65625 12.3125 13.648438 12.4375 13.636719 C 12.558594 13.628906 12.667969 13.625 12.671875 13.628906 C 12.679688 13.632812 12.78125 13.878906 12.894531 14.171875 L 13.105469 14.703125 L 13.585938 15.039062 C 13.847656 15.222656 14.074219 15.375 14.082031 15.378906 C 14.089844 15.378906 14.101562 15.136719 14.105469 14.835938 L 14.117188 14.292969 L 13.773438 13.867188 C 13.585938 13.632812 13.433594 13.433594 13.433594 13.421875 C 13.433594 13.40625 13.46875 13.34375 13.515625 13.277344 C 13.5625 13.210938 13.617188 13.125 13.644531 13.089844 L 13.683594 13.023438 L 13.351562 12.496094 C 13.171875 12.207031 13.023438 11.957031 13.03125 11.945312 C 13.035156 11.9375 13.140625 11.867188 13.261719 11.789062 C 13.386719 11.714844 13.488281 11.644531 13.488281 11.632812 C 13.488281 11.613281 12.589844 10.027344 12.566406 10.007812 C 12.5625 10.007812 12.472656 10.023438 12.367188 10.050781 C 12.261719 10.078125 12.167969 10.097656 12.15625 10.097656 C 12.144531 10.097656 12.125 10.078125 12.113281 10.054688 C 12.042969 9.933594 11.273438 8.417969 11.144531 8.15625 C 11.113281 8.085938 11.113281 8.078125 11.136719 8.070312 C 11.152344 8.066406 11.296875 8.058594 11.460938 8.058594 L 11.757812 8.058594 L 11.757812 6.566406 L 11.074219 6.566406 L 11.058594 6.726562 C 11.054688 6.816406 11.046875 6.902344 11.046875 6.914062 C 11.042969 6.9375 10.820312 6.996094 10.675781 7.011719 C 10.570312 7.023438 10.601562 7.070312 10.316406 6.519531 C 9.894531 5.699219 9.691406 5.269531 9.691406 5.195312 C 9.691406 5.179688 9.761719 5.078125 9.84375 4.96875 C 10.050781 4.683594 10.125 4.515625 10.160156 4.238281 C 10.203125 3.9375 10.128906 3.621094 9.957031 3.328125 C 9.839844 3.136719 9.734375 3.015625 9.550781 2.863281 C 9.371094 2.714844 9.191406 2.605469 8.980469 2.511719 L 8.820312 2.441406 L 8.820312 0.605469 L 7.3125 0.605469 Z M 8.664062 3.410156 C 8.847656 3.476562 9.078125 3.828125 9.078125 4.039062 C 9.078125 4.140625 9.027344 4.296875 8.964844 4.40625 C 8.863281 4.570312 8.625 4.757812 8.441406 4.808594 C 8.222656 4.871094 7.835938 4.863281 7.648438 4.789062 C 7.496094 4.730469 7.242188 4.519531 7.160156 4.386719 C 7.105469 4.292969 7.097656 4.265625 7.09375 4.128906 C 7.078125 3.859375 7.179688 3.636719 7.390625 3.46875 L 7.5 3.382812 L 8.042969 3.382812 C 8.53125 3.382812 8.59375 3.382812 8.664062 3.410156 Z M 8.445312 5.972656 C 8.5 6.085938 8.625 6.339844 8.71875 6.535156 C 8.878906 6.863281 8.890625 6.890625 8.855469 6.902344 C 8.746094 6.933594 7.304688 6.929688 7.238281 6.898438 C 7.214844 6.886719 7.363281 6.585938 7.75 5.8125 L 7.773438 5.765625 L 8.347656 5.765625 Z M 8.445312 5.972656 "/>
    </g>
</svg>
